STARTFONT 2.1
COMMENT
COMMENT Converted from OpenType font "Q:\font stuff\winfont\Thong.ttf" by "otf2bdf 3.0".
COMMENT
FONT -FreeType-Thong-Medium-R-Normal--26-260-72-72-P-87-ISO10646-1
SIZE 26 72 72
FONTBOUNDINGBOX 28 26 -1 -5
STARTPROPERTIES 19
FOUNDRY "FreeType"
FAMILY_NAME "Thong"
WEIGHT_NAME "Medium"
SLANT "R"
SETWIDTH_NAME "Normal"
ADD_STYLE_NAME ""
PIXEL_SIZE 26
POINT_SIZE 260
RESOLUTION_X 72
RESOLUTION_Y 72
SPACING "P"
AVERAGE_WIDTH 87
CHARSET_REGISTRY "ISO10646"
CHARSET_ENCODING "1"
FONT_ASCENT 20
FONT_DESCENT 5
COPYRIGHT "© Graham Meade. All rights reserved. gem@c031.aone.net.au"
_OTF_FONTFILE "Q:\font stuff\winfont\Thong.ttf"
_OTF_PSNAME "Thong"
ENDPROPERTIES
CHARS 207
STARTCHAR 0020
ENCODING 32
SWIDTH 346 0
DWIDTH 9 0
BBX 0 0 0 0
BITMAP
ENDCHAR
STARTCHAR 0021
ENCODING 33
SWIDTH 76 0
DWIDTH 2 0
BBX 1 17 0 0
BITMAP
80
80
80
80
80
80
80
80
80
80
80
80
80
80
00
00
80
ENDCHAR
STARTCHAR 0022
ENCODING 34
SWIDTH 153 0
DWIDTH 4 0
BBX 3 4 0 13
BITMAP
A0
A0
A0
A0
ENDCHAR
STARTCHAR 0023
ENCODING 35
SWIDTH 500 0
DWIDTH 13 0
BBX 11 11 1 3
BITMAP
6100
1100
9220
FFE0
1200
1200
7FC0
9220
1200
1100
6100
ENDCHAR
STARTCHAR 0024
ENCODING 36
SWIDTH 423 0
DWIDTH 11 0
BBX 10 21 0 -2
BITMAP
7F00
1200
3F00
7580
5440
9440
9400
9400
5400
3400
1F00
14C0
1440
1440
1440
5440
5440
7480
3F00
1200
7300
ENDCHAR
STARTCHAR 0025
ENCODING 37
SWIDTH 807 0
DWIDTH 21 0
BBX 20 17 0 -1
BITMAP
1E0200
610200
408400
408400
808800
409800
619000
3F2000
0C23C0
004420
00C810
008810
019010
010810
020810
020420
0403C0
ENDCHAR
STARTCHAR 0026
ENCODING 38
SWIDTH 461 0
DWIDTH 12 0
BBX 11 17 0 0
BITMAP
1E00
6100
4080
C080
4080
4080
4080
2100
3E00
6000
4000
8000
8000
4000
4040
20C0
1F60
ENDCHAR
STARTCHAR 0027
ENCODING 39
SWIDTH 76 0
DWIDTH 2 0
BBX 1 4 0 13
BITMAP
80
80
80
80
ENDCHAR
STARTCHAR 0028
ENCODING 40
SWIDTH 230 0
DWIDTH 6 0
BBX 5 20 0 -2
BITMAP
18
60
40
40
80
80
80
80
80
80
80
80
80
80
80
80
40
40
60
18
ENDCHAR
STARTCHAR 0029
ENCODING 41
SWIDTH 230 0
DWIDTH 6 0
BBX 5 20 0 -2
BITMAP
C0
30
10
08
08
08
08
08
08
08
08
08
08
08
08
08
08
10
30
C0
ENDCHAR
STARTCHAR 002A
ENCODING 42
SWIDTH 307 0
DWIDTH 8 0
BBX 7 7 0 9
BITMAP
40
24
18
FE
18
28
64
ENDCHAR
STARTCHAR 002B
ENCODING 43
SWIDTH 461 0
DWIDTH 12 0
BBX 11 11 0 3
BITMAP
1900
0600
0400
4420
4420
7FC0
4420
8420
0400
0600
1900
ENDCHAR
STARTCHAR 002C
ENCODING 44
SWIDTH 115 0
DWIDTH 3 0
BBX 1 4 1 -2
BITMAP
80
80
80
80
ENDCHAR
STARTCHAR 002D
ENCODING 45
SWIDTH 461 0
DWIDTH 12 0
BBX 11 5 0 6
BITMAP
4020
4020
3FC0
4020
8020
ENDCHAR
STARTCHAR 002E
ENCODING 46
SWIDTH 153 0
DWIDTH 4 0
BBX 1 2 1 0
BITMAP
80
80
ENDCHAR
STARTCHAR 002F
ENCODING 47
SWIDTH 461 0
DWIDTH 12 0
BBX 10 17 1 0
BITMAP
0040
0080
0080
0100
0100
0200
0400
0400
0800
0800
1000
1000
2000
4000
4000
8000
8000
ENDCHAR
STARTCHAR 0030
ENCODING 48
SWIDTH 384 0
DWIDTH 10 0
BBX 9 17 0 0
BITMAP
1E00
6100
4080
4080
8080
8080
8080
8180
9E80
A080
C080
C080
8080
4080
4080
6180
1E00
ENDCHAR
STARTCHAR 0031
ENCODING 49
SWIDTH 153 0
DWIDTH 4 0
BBX 3 16 0 1
BITMAP
40
40
40
40
40
40
40
40
40
40
40
40
40
40
40
E0
ENDCHAR
STARTCHAR 0032
ENCODING 50
SWIDTH 384 0
DWIDTH 10 0
BBX 9 17 0 0
BITMAP
1E00
6100
4080
4080
0080
0080
0080
0080
0100
1E00
6000
4000
8000
8000
8000
8000
FF80
ENDCHAR
STARTCHAR 0033
ENCODING 51
SWIDTH 384 0
DWIDTH 10 0
BBX 9 17 0 0
BITMAP
FE00
0100
0080
0080
0080
0080
0080
0100
3E00
0180
0080
0080
0080
0080
4080
6100
1E00
ENDCHAR
STARTCHAR 0034
ENCODING 52
SWIDTH 500 0
DWIDTH 13 0
BBX 12 17 0 0
BITMAP
0400
0400
0800
0800
1800
1000
1000
2000
2200
2200
5E00
6230
C3E0
0200
0200
0200
0200
ENDCHAR
STARTCHAR 0035
ENCODING 53
SWIDTH 384 0
DWIDTH 10 0
BBX 9 17 0 0
BITMAP
FF80
8000
8000
8000
8000
8000
FE00
0100
0080
0080
0080
0080
0080
4080
4080
6100
1E00
ENDCHAR
STARTCHAR 0036
ENCODING 54
SWIDTH 423 0
DWIDTH 11 0
BBX 10 17 0 0
BITMAP
1F00
6080
4040
4040
8000
8000
C000
FF00
8080
8040
8040
8040
8040
4040
4040
6080
1F00
ENDCHAR
STARTCHAR 0037
ENCODING 55
SWIDTH 500 0
DWIDTH 13 0
BBX 11 17 1 1
BITMAP
7820
8C60
07C0
0040
0080
0080
0100
0100
0100
0200
0200
0400
0400
0400
0800
0800
1000
ENDCHAR
STARTCHAR 0038
ENCODING 56
SWIDTH 461 0
DWIDTH 12 0
BBX 9 17 1 0
BITMAP
3E00
6300
C180
8080
8080
8080
4100
2200
3E00
4100
8080
8080
8080
8080
8080
4100
3E00
ENDCHAR
STARTCHAR 0039
ENCODING 57
SWIDTH 423 0
DWIDTH 11 0
BBX 10 17 0 0
BITMAP
1F00
2080
4040
8040
8040
8040
8040
4040
6040
1FC0
0040
0040
0040
4040
4040
6080
1F00
ENDCHAR
STARTCHAR 003A
ENCODING 58
SWIDTH 153 0
DWIDTH 4 0
BBX 1 9 1 0
BITMAP
80
00
00
00
00
00
00
00
80
ENDCHAR
STARTCHAR 003B
ENCODING 59
SWIDTH 115 0
DWIDTH 3 0
BBX 2 11 0 -2
BITMAP
80
00
00
00
00
00
00
40
40
40
40
ENDCHAR
STARTCHAR 003C
ENCODING 60
SWIDTH 423 0
DWIDTH 11 0
BBX 9 7 1 5
BITMAP
0080
0700
3800
E000
3800
0700
0080
ENDCHAR
STARTCHAR 003D
ENCODING 61
SWIDTH 461 0
DWIDTH 12 0
BBX 10 7 1 5
BITMAP
8040
FFC0
0000
0000
0000
FF80
8040
ENDCHAR
STARTCHAR 003E
ENCODING 62
SWIDTH 423 0
DWIDTH 11 0
BBX 10 7 0 5
BITMAP
C000
3800
0E00
01C0
0700
3800
C000
ENDCHAR
STARTCHAR 003F
ENCODING 63
SWIDTH 423 0
DWIDTH 11 0
BBX 9 17 1 0
BITMAP
3E00
4100
8080
0080
0080
0080
0080
0100
1E00
1000
2000
2000
2000
2000
0000
0000
2000
ENDCHAR
STARTCHAR 0040
ENCODING 64
SWIDTH 692 0
DWIDTH 18 0
BBX 17 17 0 0
BITMAP
008000
01C000
032000
061000
0DE800
1A2400
302200
61E300
C22180
622300
342600
1A2400
0FC800
061000
032000
01C000
008000
ENDCHAR
STARTCHAR 0041
ENCODING 65
SWIDTH 423 0
DWIDTH 11 0
BBX 10 17 0 0
BITMAP
1F00
6080
4040
4040
8040
8040
8040
8040
9F40
E0C0
C040
C040
8040
8040
8040
8040
8040
ENDCHAR
STARTCHAR 0042
ENCODING 66
SWIDTH 423 0
DWIDTH 11 0
BBX 10 17 0 0
BITMAP
1F00
6080
4040
4040
8040
8040
8040
8080
9F00
E0C0
C040
C040
8040
8040
8040
8080
FF00
ENDCHAR
STARTCHAR 0043
ENCODING 67
SWIDTH 423 0
DWIDTH 11 0
BBX 10 17 0 0
BITMAP
1F00
6080
4040
4040
8000
8000
8000
8000
8000
8000
8000
8000
8000
4040
4040
6080
1F00
ENDCHAR
STARTCHAR 0044
ENCODING 68
SWIDTH 423 0
DWIDTH 11 0
BBX 10 17 0 0
BITMAP
FF00
8080
8040
8040
8040
8040
8040
8040
8040
8040
8040
8040
8040
8040
8040
8080
FF00
ENDCHAR
STARTCHAR 0045
ENCODING 69
SWIDTH 423 0
DWIDTH 11 0
BBX 8 17 1 0
BITMAP
3F
40
C0
80
80
80
80
80
BC
E0
80
80
80
80
80
80
FF
ENDCHAR
STARTCHAR 0046
ENCODING 70
SWIDTH 346 0
DWIDTH 9 0
BBX 9 17 0 0
BITMAP
1F80
6000
4000
4000
8000
8000
8000
8000
9C00
E000
C000
C000
8000
8000
8000
8000
8000
ENDCHAR
STARTCHAR 0047
ENCODING 71
SWIDTH 423 0
DWIDTH 11 0
BBX 10 17 0 0
BITMAP
1F00
6080
4040
4040
8000
8000
8000
8000
9F00
8080
8040
8040
8040
4040
4040
60C0
1F40
ENDCHAR
STARTCHAR 0048
ENCODING 72
SWIDTH 423 0
DWIDTH 11 0
BBX 10 17 0 0
BITMAP
8040
8040
8040
8040
8040
8040
8040
9F40
A0C0
C040
C040
8040
8040
8040
8040
8040
8040
ENDCHAR
STARTCHAR 0049
ENCODING 73
SWIDTH 153 0
DWIDTH 4 0
BBX 3 17 0 0
BITMAP
E0
40
40
40
40
40
40
40
40
40
40
40
40
40
40
40
E0
ENDCHAR
STARTCHAR 004A
ENCODING 74
SWIDTH 423 0
DWIDTH 11 0
BBX 9 17 1 0
BITMAP
0080
0080
0080
0080
0080
0080
0080
0080
0080
0080
0080
0080
0080
0080
8080
C100
3E00
ENDCHAR
STARTCHAR 004B
ENCODING 75
SWIDTH 423 0
DWIDTH 11 0
BBX 10 17 0 0
BITMAP
8040
8040
8040
8040
8040
8040
8040
8080
9F00
E0C0
C040
C040
8040
8040
8040
8040
8040
ENDCHAR
STARTCHAR 004C
ENCODING 76
SWIDTH 423 0
DWIDTH 11 0
BBX 8 17 1 0
BITMAP
80
80
80
80
80
80
80
80
80
80
80
80
80
80
80
80
FF
ENDCHAR
STARTCHAR 004D
ENCODING 77
SWIDTH 615 0
DWIDTH 16 0
BBX 15 17 0 0
BITMAP
1C3C
6346
4182
4182
8102
8102
8102
8102
8102
8102
8102
8102
8102
8102
8102
8102
8102
ENDCHAR
STARTCHAR 004E
ENCODING 78
SWIDTH 423 0
DWIDTH 11 0
BBX 10 17 0 1
BITMAP
C040
C040
A040
A040
9040
9040
8840
8C40
8440
8640
8240
8140
8140
80C0
80C0
8040
8040
ENDCHAR
STARTCHAR 004F
ENCODING 79
SWIDTH 423 0
DWIDTH 11 0
BBX 10 17 0 0
BITMAP
1F00
6080
4040
4040
8040
8040
8040
8040
8040
8040
8040
8040
8040
4040
4040
6080
1F00
ENDCHAR
STARTCHAR 0050
ENCODING 80
SWIDTH 423 0
DWIDTH 11 0
BBX 10 17 0 0
BITMAP
FF00
8080
8040
8040
8040
8040
C040
C040
E0C0
9F00
8000
8000
8000
8000
8000
8000
8000
ENDCHAR
STARTCHAR 0051
ENCODING 81
SWIDTH 423 0
DWIDTH 11 0
BBX 10 20 0 -3
BITMAP
1F00
6080
4040
4040
8040
8040
8040
8040
8040
8440
8440
8840
8440
4440
4340
6180
1F80
0080
0080
0080
ENDCHAR
STARTCHAR 0052
ENCODING 82
SWIDTH 423 0
DWIDTH 11 0
BBX 10 17 0 0
BITMAP
FF00
8080
8040
8040
8040
8040
8040
8080
9F00
E180
C080
C080
8080
8080
8080
8080
8080
ENDCHAR
STARTCHAR 0053
ENCODING 83
SWIDTH 423 0
DWIDTH 11 0
BBX 10 17 0 0
BITMAP
1F00
6080
4040
8000
8000
8000
4000
2000
1F00
0080
0040
0040
0040
4040
4040
60C0
1F00
ENDCHAR
STARTCHAR 0054
ENCODING 84
SWIDTH 500 0
DWIDTH 13 0
BBX 13 17 0 0
BITMAP
3C08
4310
82E0
0200
0200
0200
0200
0200
0200
0200
0200
0200
0200
0200
0200
0200
0200
ENDCHAR
STARTCHAR 0055
ENCODING 85
SWIDTH 423 0
DWIDTH 11 0
BBX 10 17 0 0
BITMAP
8040
8040
8040
8040
8040
8040
8040
8040
8040
8040
8040
8040
8040
4040
4040
6080
1F00
ENDCHAR
STARTCHAR 0056
ENCODING 86
SWIDTH 461 0
DWIDTH 12 0
BBX 10 17 1 1
BITMAP
8040
8040
8040
8040
8040
8040
8080
4080
4080
4080
4080
4080
4180
4100
2100
2300
1E00
ENDCHAR
STARTCHAR 0057
ENCODING 87
SWIDTH 615 0
DWIDTH 16 0
BBX 15 17 0 0
BITMAP
8102
8102
8102
8102
8102
8102
8102
8102
8102
8102
8102
8102
8102
4182
4182
6346
1E3C
ENDCHAR
STARTCHAR 0058
ENCODING 88
SWIDTH 461 0
DWIDTH 12 0
BBX 9 17 1 0
BITMAP
8080
8080
8080
8080
8080
8080
8080
4100
3E00
6100
C080
8080
8080
8080
8080
8080
8080
ENDCHAR
STARTCHAR 0059
ENCODING 89
SWIDTH 461 0
DWIDTH 12 0
BBX 9 17 1 0
BITMAP
8080
8080
8080
8080
8080
8080
8080
8080
7100
1600
0800
0800
0800
0800
0800
0800
0800
ENDCHAR
STARTCHAR 005A
ENCODING 90
SWIDTH 423 0
DWIDTH 11 0
BBX 10 17 0 0
BITMAP
FFC0
0040
0040
0040
0040
0080
0080
0100
0E00
1000
2000
4000
4000
4000
8000
8000
FFC0
ENDCHAR
STARTCHAR 005B
ENCODING 91
SWIDTH 153 0
DWIDTH 4 0
BBX 3 20 0 -2
BITMAP
E0
80
80
80
80
80
80
80
80
80
80
80
80
80
80
80
80
80
80
E0
ENDCHAR
STARTCHAR 005C
ENCODING 92
SWIDTH 461 0
DWIDTH 12 0
BBX 10 17 1 -1
BITMAP
8000
8000
4000
6000
2000
1000
1000
0800
0800
0400
0600
0200
0100
0100
0080
0080
0040
ENDCHAR
STARTCHAR 005D
ENCODING 93
SWIDTH 153 0
DWIDTH 4 0
BBX 3 20 0 -2
BITMAP
60
20
20
20
20
20
20
20
20
20
20
20
20
20
20
20
20
20
20
E0
ENDCHAR
STARTCHAR 005E
ENCODING 94
SWIDTH 230 0
DWIDTH 6 0
BBX 5 4 0 13
BITMAP
30
30
48
C8
ENDCHAR
STARTCHAR 005F
ENCODING 95
SWIDTH 461 0
DWIDTH 12 0
BBX 12 1 0 -5
BITMAP
FFF0
ENDCHAR
STARTCHAR 0060
ENCODING 96
SWIDTH 153 0
DWIDTH 4 0
BBX 2 2 1 15
BITMAP
80
40
ENDCHAR
STARTCHAR 0061
ENCODING 97
SWIDTH 346 0
DWIDTH 9 0
BBX 8 12 0 0
BITMAP
3E
61
41
01
1F
61
41
41
81
81
42
3C
ENDCHAR
STARTCHAR 0062
ENCODING 98
SWIDTH 423 0
DWIDTH 11 0
BBX 8 17 1 0
BITMAP
80
80
80
80
80
BC
C2
81
81
81
81
81
81
81
83
42
3C
ENDCHAR
STARTCHAR 0063
ENCODING 99
SWIDTH 384 0
DWIDTH 10 0
BBX 9 12 0 0
BITMAP
1E00
6300
4100
4080
8000
8000
8000
8000
4080
4080
6100
1E00
ENDCHAR
STARTCHAR 0064
ENCODING 100
SWIDTH 423 0
DWIDTH 11 0
BBX 8 17 1 0
BITMAP
01
01
01
01
01
3D
43
81
81
81
81
81
81
81
83
42
3C
ENDCHAR
STARTCHAR 0065
ENCODING 101
SWIDTH 423 0
DWIDTH 11 0
BBX 8 12 1 0
BITMAP
3C
62
C1
81
81
BF
C0
80
81
81
42
3C
ENDCHAR
STARTCHAR 0066
ENCODING 102
SWIDTH 346 0
DWIDTH 9 0
BBX 9 17 0 0
BITMAP
1E00
6300
4100
4080
8000
8000
8000
8000
9C00
E000
C000
C000
8000
8000
8000
8000
8000
ENDCHAR
STARTCHAR 0067
ENCODING 103
SWIDTH 423 0
DWIDTH 11 0
BBX 8 17 1 -5
BITMAP
3C
42
83
81
81
81
81
81
81
83
43
3D
01
81
83
42
3C
ENDCHAR
STARTCHAR 0068
ENCODING 104
SWIDTH 423 0
DWIDTH 11 0
BBX 8 17 1 0
BITMAP
80
80
80
80
80
BC
C2
C3
81
81
81
81
81
81
81
81
81
ENDCHAR
STARTCHAR 0069
ENCODING 105
SWIDTH 76 0
DWIDTH 2 0
BBX 1 14 0 0
BITMAP
80
00
80
80
80
80
80
80
80
80
80
80
80
80
ENDCHAR
STARTCHAR 006A
ENCODING 106
SWIDTH 153 0
DWIDTH 4 0
BBX 4 19 -1 -5
BITMAP
10
00
10
10
10
10
10
10
10
10
10
10
10
10
10
10
10
20
C0
ENDCHAR
STARTCHAR 006B
ENCODING 107
SWIDTH 423 0
DWIDTH 11 0
BBX 8 17 1 0
BITMAP
80
80
80
80
80
81
81
81
83
82
BC
C2
C3
81
81
81
81
ENDCHAR
STARTCHAR 006C
ENCODING 108
SWIDTH 76 0
DWIDTH 2 0
BBX 1 17 0 0
BITMAP
80
80
80
80
80
80
80
80
80
80
80
80
80
80
80
80
80
ENDCHAR
STARTCHAR 006D
ENCODING 109
SWIDTH 615 0
DWIDTH 16 0
BBX 15 12 0 0
BITMAP
1C3C
6346
4182
4182
8102
8102
8102
8102
8102
8102
8102
8102
ENDCHAR
STARTCHAR 006E
ENCODING 110
SWIDTH 346 0
DWIDTH 9 0
BBX 8 12 0 0
BITMAP
1E
63
41
41
81
81
81
81
81
81
81
81
ENDCHAR
STARTCHAR 006F
ENCODING 111
SWIDTH 423 0
DWIDTH 11 0
BBX 8 12 1 0
BITMAP
3C
42
81
81
81
81
81
81
81
83
42
3C
ENDCHAR
STARTCHAR 0070
ENCODING 112
SWIDTH 423 0
DWIDTH 11 0
BBX 8 17 1 -5
BITMAP
3C
42
81
81
81
81
81
81
81
83
C2
BC
80
80
80
80
80
ENDCHAR
STARTCHAR 0071
ENCODING 113
SWIDTH 423 0
DWIDTH 11 0
BBX 8 17 1 -5
BITMAP
3C
42
81
81
81
81
81
81
81
83
43
3D
01
01
01
01
01
ENDCHAR
STARTCHAR 0072
ENCODING 114
SWIDTH 307 0
DWIDTH 8 0
BBX 8 12 0 0
BITMAP
1C
63
41
40
80
80
80
80
80
80
80
80
ENDCHAR
STARTCHAR 0073
ENCODING 115
SWIDTH 307 0
DWIDTH 8 0
BBX 7 12 0 0
BITMAP
7C
42
80
80
40
7C
02
02
02
82
42
7C
ENDCHAR
STARTCHAR 0074
ENCODING 116
SWIDTH 269 0
DWIDTH 7 0
BBX 6 16 0 0
BITMAP
80
80
80
9C
A0
C0
C0
80
80
80
80
80
80
80
80
80
ENDCHAR
STARTCHAR 0075
ENCODING 117
SWIDTH 346 0
DWIDTH 9 0
BBX 8 12 0 0
BITMAP
81
81
81
81
81
81
81
81
41
41
63
1E
ENDCHAR
STARTCHAR 0076
ENCODING 118
SWIDTH 423 0
DWIDTH 11 0
BBX 9 12 1 1
BITMAP
8080
8100
8100
8100
4100
4200
4200
4200
4200
2400
2400
1800
ENDCHAR
STARTCHAR 0077
ENCODING 119
SWIDTH 615 0
DWIDTH 16 0
BBX 15 12 0 0
BITMAP
8102
8102
8102
8102
8102
8102
8102
8102
4182
4182
6346
1E3C
ENDCHAR
STARTCHAR 0078
ENCODING 120
SWIDTH 346 0
DWIDTH 9 0
BBX 8 12 0 0
BITMAP
81
81
81
41
41
22
3E
63
41
81
81
81
ENDCHAR
STARTCHAR 0079
ENCODING 121
SWIDTH 423 0
DWIDTH 11 0
BBX 8 17 1 -5
BITMAP
81
81
81
81
81
81
81
81
81
83
43
3D
01
81
83
42
3C
ENDCHAR
STARTCHAR 007A
ENCODING 122
SWIDTH 346 0
DWIDTH 9 0
BBX 8 12 0 0
BITMAP
FF
01
01
01
01
03
1E
60
40
40
80
FF
ENDCHAR
STARTCHAR 007B
ENCODING 123
SWIDTH 346 0
DWIDTH 9 0
BBX 7 20 1 -2
BITMAP
06
08
10
10
20
20
20
20
20
C0
C0
20
20
20
20
20
10
10
18
06
ENDCHAR
STARTCHAR 007C
ENCODING 124
SWIDTH 230 0
DWIDTH 6 0
BBX 5 20 0 -2
BITMAP
F8
30
20
20
20
20
20
20
20
20
20
20
20
20
20
20
20
20
30
C8
ENDCHAR
STARTCHAR 007D
ENCODING 125
SWIDTH 346 0
DWIDTH 9 0
BBX 8 20 0 -2
BITMAP
C0
30
10
08
08
08
08
08
0C
07
07
0C
08
08
08
08
08
10
30
C0
ENDCHAR
STARTCHAR 007E
ENCODING 126
SWIDTH 538 0
DWIDTH 14 0
BBX 13 3 0 10
BITMAP
3C08
4310
80E0
ENDCHAR
STARTCHAR 00A0
ENCODING 160
SWIDTH 346 0
DWIDTH 9 0
BBX 0 0 0 0
BITMAP
ENDCHAR
STARTCHAR 00A1
ENCODING 161
SWIDTH 76 0
DWIDTH 2 0
BBX 1 17 0 -3
BITMAP
80
00
00
80
80
80
80
80
80
80
80
80
80
80
80
80
80
ENDCHAR
STARTCHAR 00A2
ENCODING 162
SWIDTH 423 0
DWIDTH 11 0
BBX 8 16 1 -2
BITMAP
7E
3C
18
76
5A
99
98
98
98
98
99
99
5A
3C
3C
66
ENDCHAR
STARTCHAR 00A3
ENCODING 163
SWIDTH 461 0
DWIDTH 12 0
BBX 9 17 1 0
BITMAP
1F80
2000
6000
4000
4000
4000
4000
5E00
E000
4000
4000
4000
4000
4000
4000
4000
7F80
ENDCHAR
STARTCHAR 00A4
ENCODING 164
SWIDTH 384 0
DWIDTH 10 0
BBX 9 9 0 7
BITMAP
7F80
4C80
9E80
7380
6180
5280
8C80
4C80
3300
ENDCHAR
STARTCHAR 00A5
ENCODING 165
SWIDTH 461 0
DWIDTH 12 0
BBX 9 17 1 0
BITMAP
8080
8080
8080
8080
8080
8080
8080
7100
1E00
FF80
0800
0800
3E00
0800
0800
0800
0800
ENDCHAR
STARTCHAR 00A6
ENCODING 166
SWIDTH 230 0
DWIDTH 6 0
BBX 5 17 0 0
BITMAP
C8
30
30
20
20
30
30
C8
00
C8
30
30
20
20
30
30
C8
ENDCHAR
STARTCHAR 00A7
ENCODING 167
SWIDTH 307 0
DWIDTH 8 0
BBX 7 17 0 -2
BITMAP
7E
42
80
80
80
40
7E
42
82
82
42
7E
02
02
02
42
7E
ENDCHAR
STARTCHAR 00A8
ENCODING 168
SWIDTH 230 0
DWIDTH 6 0
BBX 4 2 1 17
BITMAP
90
90
ENDCHAR
STARTCHAR 00A9
ENCODING 169
SWIDTH 461 0
DWIDTH 12 0
BBX 12 15 -1 1
BITMAP
3FC0
4020
8F10
98D0
9050
9010
9010
9010
9010
9010
9050
9050
98B0
4FE0
3FC0
ENDCHAR
STARTCHAR 00AA
ENCODING 170
SWIDTH 346 0
DWIDTH 9 0
BBX 7 10 1 7
BITMAP
7C
C2
02
02
3E
C2
82
82
84
78
ENDCHAR
STARTCHAR 00AC
ENCODING 172
SWIDTH 423 0
DWIDTH 11 0
BBX 9 2 1 5
BITMAP
FF00
0080
ENDCHAR
STARTCHAR 00AD
ENCODING 173
SWIDTH 384 0
DWIDTH 10 0
BBX 9 1 1 7
BITMAP
FF80
ENDCHAR
STARTCHAR 00AE
ENCODING 174
SWIDTH 461 0
DWIDTH 12 0
BBX 12 15 -1 1
BITMAP
3FC0
4020
9F90
90D0
9050
9050
90D0
9F10
98D0
9050
9050
9050
9070
5060
3FC0
ENDCHAR
STARTCHAR 00B1
ENCODING 177
SWIDTH 461 0
DWIDTH 12 0
BBX 12 13 0 1
BITMAP
0D00
0600
0400
4420
4420
7FC0
4420
8420
0400
0600
3FE0
4020
4010
ENDCHAR
STARTCHAR 00B2
ENCODING 178
SWIDTH 269 0
DWIDTH 7 0
BBX 5 10 1 7
BITMAP
70
98
08
08
18
70
80
80
80
F8
ENDCHAR
STARTCHAR 00B3
ENCODING 179
SWIDTH 269 0
DWIDTH 7 0
BBX 5 10 1 7
BITMAP
F0
10
18
10
10
30
18
08
10
F0
ENDCHAR
STARTCHAR 00B4
ENCODING 180
SWIDTH 153 0
DWIDTH 4 0
BBX 1 1 1 16
BITMAP
80
ENDCHAR
STARTCHAR 00B5
ENCODING 181
SWIDTH 346 0
DWIDTH 9 0
BBX 8 17 0 -5
BITMAP
81
81
81
81
81
81
81
81
C1
C1
A3
9D
80
80
80
80
80
ENDCHAR
STARTCHAR 00B6
ENCODING 182
SWIDTH 346 0
DWIDTH 9 0
BBX 8 18 0 -1
BITMAP
1F
7A
7A
7A
FA
7A
7A
3A
1A
0A
0A
0A
0A
0A
0A
0A
0A
0A
ENDCHAR
STARTCHAR 00B8
ENCODING 184
SWIDTH 307 0
DWIDTH 8 0
BBX 3 5 4 -4
BITMAP
40
40
20
20
E0
ENDCHAR
STARTCHAR 00B9
ENCODING 185
SWIDTH 76 0
DWIDTH 2 0
BBX 1 10 1 7
BITMAP
80
80
80
80
80
80
80
80
80
80
ENDCHAR
STARTCHAR 00BA
ENCODING 186
SWIDTH 230 0
DWIDTH 6 0
BBX 3 4 1 13
BITMAP
40
A0
A0
40
ENDCHAR
STARTCHAR 00BC
ENCODING 188
SWIDTH 576 0
DWIDTH 15 0
BBX 13 17 1 0
BITMAP
8200
8200
8400
8400
8400
8400
8800
8880
8880
9100
1100
1340
13C0
2278
2040
2040
0040
ENDCHAR
STARTCHAR 00BD
ENCODING 189
SWIDTH 538 0
DWIDTH 14 0
BBX 12 17 1 0
BITMAP
8200
8400
8400
8400
8400
8800
8800
88E0
9130
9010
1010
1030
20E0
2100
2100
4100
41F0
ENDCHAR
STARTCHAR 00BE
ENCODING 190
SWIDTH 692 0
DWIDTH 18 0
BBX 16 17 1 0
BITMAP
F040
0840
0C80
0880
1080
3880
0900
0510
8910
F120
0220
0264
0274
044F
0404
0404
0404
ENDCHAR
STARTCHAR 00BF
ENCODING 191
SWIDTH 423 0
DWIDTH 11 0
BBX 10 17 0 -3
BITMAP
0200
0000
0000
0200
0200
0200
0200
0200
1C00
2000
4000
4000
8000
4040
4040
2080
1F00
ENDCHAR
STARTCHAR 00C0
ENCODING 192
SWIDTH 423 0
DWIDTH 11 0
BBX 10 20 0 0
BITMAP
0C00
0400
0000
1F00
6080
4040
4040
8040
8040
8040
8040
9F40
E0C0
C040
C040
8040
8040
8040
8040
8040
ENDCHAR
STARTCHAR 00C1
ENCODING 193
SWIDTH 423 0
DWIDTH 11 0
BBX 10 20 0 0
BITMAP
0400
0800
0000
1F00
6080
4040
4040
8040
8040
8040
8040
9F40
E0C0
C040
C040
8040
8040
8040
8040
8040
ENDCHAR
STARTCHAR 00C2
ENCODING 194
SWIDTH 423 0
DWIDTH 11 0
BBX 10 21 0 0
BITMAP
0C00
0A00
1A00
0000
1F00
6080
4040
4040
8040
8040
8040
8040
9F40
E0C0
C040
C040
8040
8040
8040
8040
8040
ENDCHAR
STARTCHAR 00C3
ENCODING 195
SWIDTH 423 0
DWIDTH 11 0
BBX 10 20 0 0
BITMAP
2700
1800
0000
1F00
6080
4040
4040
8040
8040
8040
8040
9F40
E0C0
C040
C040
8040
8040
8040
8040
8040
ENDCHAR
STARTCHAR 00C4
ENCODING 196
SWIDTH 423 0
DWIDTH 11 0
BBX 10 20 0 0
BITMAP
1200
0000
0000
1F00
6080
4040
4040
8040
8040
8040
8040
9F40
E0C0
C040
C040
8040
8040
8040
8040
8040
ENDCHAR
STARTCHAR 00C5
ENCODING 197
SWIDTH 423 0
DWIDTH 11 0
BBX 10 21 0 0
BITMAP
0E00
1200
0E00
0000
1F00
6080
4040
4040
8040
8040
8040
8040
9F40
E0C0
C040
C040
8040
8040
8040
8040
8040
ENDCHAR
STARTCHAR 00C6
ENCODING 198
SWIDTH 769 0
DWIDTH 20 0
BBX 17 17 1 0
BITMAP
3E1F80
61A000
C0E000
804000
804000
804000
804000
804000
BF5E00
E1F000
C0E000
804000
804000
804000
804000
804000
807F80
ENDCHAR
STARTCHAR 00C7
ENCODING 199
SWIDTH 423 0
DWIDTH 11 0
BBX 10 21 0 -4
BITMAP
1F00
6080
4040
4040
8000
8000
8000
8000
8000
8000
8000
8000
8000
4040
4040
6080
1F00
0400
0200
0200
0E00
ENDCHAR
STARTCHAR 00C8
ENCODING 200
SWIDTH 423 0
DWIDTH 11 0
BBX 8 20 1 0
BITMAP
10
08
00
3F
40
C0
80
80
80
80
80
BC
E0
80
80
80
80
80
80
FF
ENDCHAR
STARTCHAR 00C9
ENCODING 201
SWIDTH 423 0
DWIDTH 11 0
BBX 8 20 1 0
BITMAP
08
10
00
3F
40
C0
80
80
80
80
80
BC
E0
80
80
80
80
80
80
FF
ENDCHAR
STARTCHAR 00CA
ENCODING 202
SWIDTH 423 0
DWIDTH 11 0
BBX 8 21 1 0
BITMAP
18
1C
24
00
3F
40
C0
80
80
80
80
80
BC
E0
80
80
80
80
80
80
FF
ENDCHAR
STARTCHAR 00CB
ENCODING 203
SWIDTH 423 0
DWIDTH 11 0
BBX 8 20 1 0
BITMAP
24
00
00
3F
40
C0
80
80
80
80
80
BC
E0
80
80
80
80
80
80
FF
ENDCHAR
STARTCHAR 00CC
ENCODING 204
SWIDTH 115 0
DWIDTH 3 0
BBX 3 20 0 0
BITMAP
40
40
00
E0
40
40
40
40
40
40
40
40
40
40
40
40
40
40
40
E0
ENDCHAR
STARTCHAR 00CD
ENCODING 205
SWIDTH 115 0
DWIDTH 3 0
BBX 3 20 0 0
BITMAP
40
80
00
E0
40
40
40
40
40
40
40
40
40
40
40
40
40
40
40
E0
ENDCHAR
STARTCHAR 00CE
ENCODING 206
SWIDTH 230 0
DWIDTH 6 0
BBX 4 21 1 0
BITMAP
40
60
90
00
E0
40
40
40
40
40
40
40
40
40
40
40
40
40
40
40
E0
ENDCHAR
STARTCHAR 00CF
ENCODING 207
SWIDTH 153 0
DWIDTH 4 0
BBX 5 20 -1 0
BITMAP
88
00
00
70
20
20
20
20
20
20
20
20
20
20
20
20
20
20
20
70
ENDCHAR
STARTCHAR 00D0
ENCODING 208
SWIDTH 500 0
DWIDTH 13 0
BBX 12 17 0 0
BITMAP
3FC0
2060
2030
2010
2010
2010
A010
A010
7E10
2110
2010
2010
2010
2010
2030
2060
3FC0
ENDCHAR
STARTCHAR 00D1
ENCODING 209
SWIDTH 423 0
DWIDTH 11 0
BBX 10 20 0 0
BITMAP
2700
1800
0000
C040
C040
A040
A040
9040
9040
8840
8C40
8440
8640
8240
8140
8140
80C0
80C0
8040
8040
ENDCHAR
STARTCHAR 00D2
ENCODING 210
SWIDTH 423 0
DWIDTH 11 0
BBX 10 20 0 0
BITMAP
0C00
0400
0000
1F00
6080
4040
4040
8040
8040
8040
8040
8040
8040
8040
8040
8040
4040
4040
6080
1F00
ENDCHAR
STARTCHAR 00D3
ENCODING 211
SWIDTH 423 0
DWIDTH 11 0
BBX 10 20 0 0
BITMAP
0400
0800
0000
1F00
6080
4040
4040
8040
8040
8040
8040
8040
8040
8040
8040
8040
4040
4040
6080
1F00
ENDCHAR
STARTCHAR 00D4
ENCODING 212
SWIDTH 423 0
DWIDTH 11 0
BBX 10 21 0 0
BITMAP
0C00
0A00
1200
0000
1F00
6080
4040
4040
8040
8040
8040
8040
8040
8040
8040
8040
8040
4040
4040
6080
1F00
ENDCHAR
STARTCHAR 00D5
ENCODING 213
SWIDTH 423 0
DWIDTH 11 0
BBX 10 20 0 0
BITMAP
2700
1800
0000
1F00
6080
4040
4040
8040
8040
8040
8040
8040
8040
8040
8040
8040
4040
4040
6080
1F00
ENDCHAR
STARTCHAR 00D6
ENCODING 214
SWIDTH 423 0
DWIDTH 11 0
BBX 10 20 0 0
BITMAP
1200
0000
0000
1F00
6080
4040
4040
8040
8040
8040
8040
8040
8040
8040
8040
8040
4040
4040
6080
1F00
ENDCHAR
STARTCHAR 00D8
ENCODING 216
SWIDTH 461 0
DWIDTH 12 0
BBX 11 17 0 -1
BITMAP
3F60
60C0
C0C0
80C0
8140
8140
8240
8640
8440
8840
8840
9040
9040
A040
60C0
6180
9F00
ENDCHAR
STARTCHAR 00D9
ENCODING 217
SWIDTH 423 0
DWIDTH 11 0
BBX 10 20 0 0
BITMAP
0C00
0400
0000
8040
8040
8040
8040
8040
8040
8040
8040
8040
8040
8040
8040
8040
4040
4040
6080
1F00
ENDCHAR
STARTCHAR 00DA
ENCODING 218
SWIDTH 423 0
DWIDTH 11 0
BBX 10 20 0 0
BITMAP
0400
0800
0000
8040
8040
8040
8040
8040
8040
8040
8040
8040
8040
8040
8040
8040
4040
4040
6080
1F00
ENDCHAR
STARTCHAR 00DB
ENCODING 219
SWIDTH 423 0
DWIDTH 11 0
BBX 10 21 0 0
BITMAP
0C00
0A00
1200
0000
8040
8040
8040
8040
8040
8040
8040
8040
8040
8040
8040
8040
8040
4040
4040
6080
1F00
ENDCHAR
STARTCHAR 00DC
ENCODING 220
SWIDTH 423 0
DWIDTH 11 0
BBX 10 20 0 0
BITMAP
1200
0000
0000
8040
8040
8040
8040
8040
8040
8040
8040
8040
8040
8040
8040
8040
4040
4040
6080
1F00
ENDCHAR
STARTCHAR 00DD
ENCODING 221
SWIDTH 461 0
DWIDTH 12 0
BBX 9 20 1 0
BITMAP
0800
0800
0000
8080
8080
8080
8080
8080
8080
8080
8080
7100
1600
0800
0800
0800
0800
0800
0800
0800
ENDCHAR
STARTCHAR 00DE
ENCODING 222
SWIDTH 423 0
DWIDTH 11 0
BBX 8 17 1 0
BITMAP
80
80
80
FC
82
81
81
81
81
81
81
81
82
FC
80
80
80
ENDCHAR
STARTCHAR 00DF
ENCODING 223
SWIDTH 461 0
DWIDTH 12 0
BBX 9 19 1 -2
BITMAP
3C00
4200
C300
8100
8100
8100
8300
8200
8E00
8100
8180
8080
8080
8080
8080
8080
8180
0100
1E00
ENDCHAR
STARTCHAR 00E0
ENCODING 224
SWIDTH 346 0
DWIDTH 9 0
BBX 8 15 0 0
BITMAP
08
08
00
3E
61
41
01
1F
61
41
41
81
81
42
3C
ENDCHAR
STARTCHAR 00E1
ENCODING 225
SWIDTH 346 0
DWIDTH 9 0
BBX 8 15 0 0
BITMAP
04
08
08
3E
61
41
01
1F
61
41
41
81
81
42
3C
ENDCHAR
STARTCHAR 00E2
ENCODING 226
SWIDTH 346 0
DWIDTH 9 0
BBX 8 16 0 0
BITMAP
08
14
16
00
3E
61
41
01
1F
61
41
41
81
81
42
3C
ENDCHAR
STARTCHAR 00E3
ENCODING 227
SWIDTH 346 0
DWIDTH 9 0
BBX 8 15 0 0
BITMAP
06
79
30
3E
61
41
01
1F
61
41
41
81
81
42
3C
ENDCHAR
STARTCHAR 00E4
ENCODING 228
SWIDTH 346 0
DWIDTH 9 0
BBX 8 15 0 0
BITMAP
24
00
00
3E
61
41
01
1F
61
41
41
81
81
42
3C
ENDCHAR
STARTCHAR 00E5
ENCODING 229
SWIDTH 346 0
DWIDTH 9 0
BBX 8 16 0 0
BITMAP
1C
14
14
1C
3E
61
41
01
1F
61
41
41
81
81
42
3C
ENDCHAR
STARTCHAR 00E6
ENCODING 230
SWIDTH 653 0
DWIDTH 17 0
BBX 16 12 0 0
BITMAP
3E3C
6146
4181
0181
1F01
613F
41C0
4180
8101
8181
4342
3C3C
ENDCHAR
STARTCHAR 00E7
ENCODING 231
SWIDTH 384 0
DWIDTH 10 0
BBX 9 16 0 -4
BITMAP
1E00
6300
4100
4080
8000
8000
8000
8000
8080
4080
4100
2200
1C00
0C00
0400
0C00
ENDCHAR
STARTCHAR 00E8
ENCODING 232
SWIDTH 423 0
DWIDTH 11 0
BBX 8 15 1 0
BITMAP
08
08
00
3C
62
C1
81
81
BF
C0
80
81
81
42
3C
ENDCHAR
STARTCHAR 00E9
ENCODING 233
SWIDTH 423 0
DWIDTH 11 0
BBX 8 15 1 0
BITMAP
08
08
10
3C
62
C1
81
81
BF
C0
80
81
81
42
3C
ENDCHAR
STARTCHAR 00EA
ENCODING 234
SWIDTH 423 0
DWIDTH 11 0
BBX 8 16 1 0
BITMAP
18
14
34
00
3C
62
C1
81
81
BF
C0
80
81
81
42
3C
ENDCHAR
STARTCHAR 00EB
ENCODING 235
SWIDTH 423 0
DWIDTH 11 0
BBX 8 15 1 0
BITMAP
24
00
00
3C
62
C1
81
81
BF
C0
80
81
81
42
3C
ENDCHAR
STARTCHAR 00EC
ENCODING 236
SWIDTH 76 0
DWIDTH 2 0
BBX 2 15 0 0
BITMAP
80
40
00
40
40
40
40
40
40
40
40
40
40
40
40
ENDCHAR
STARTCHAR 00ED
ENCODING 237
SWIDTH 76 0
DWIDTH 2 0
BBX 2 15 0 0
BITMAP
40
80
00
40
40
40
40
40
40
40
40
40
40
40
40
ENDCHAR
STARTCHAR 00EE
ENCODING 238
SWIDTH 76 0
DWIDTH 2 0
BBX 4 16 -1 0
BITMAP
20
70
90
00
20
20
20
20
20
20
20
20
20
20
20
20
ENDCHAR
STARTCHAR 00EF
ENCODING 239
SWIDTH 76 0
DWIDTH 2 0
BBX 4 15 -1 0
BITMAP
90
00
00
40
40
40
40
40
40
40
40
40
40
40
40
ENDCHAR
STARTCHAR 00F1
ENCODING 241
SWIDTH 346 0
DWIDTH 9 0
BBX 8 15 0 0
BITMAP
06
39
00
1E
63
41
41
81
81
81
81
81
81
81
81
ENDCHAR
STARTCHAR 00F2
ENCODING 242
SWIDTH 423 0
DWIDTH 11 0
BBX 8 15 1 0
BITMAP
08
08
00
3C
42
81
81
81
81
81
81
81
83
42
3C
ENDCHAR
STARTCHAR 00F3
ENCODING 243
SWIDTH 423 0
DWIDTH 11 0
BBX 8 15 1 0
BITMAP
08
08
10
3C
42
81
81
81
81
81
81
81
83
42
3C
ENDCHAR
STARTCHAR 00F4
ENCODING 244
SWIDTH 423 0
DWIDTH 11 0
BBX 8 16 1 0
BITMAP
18
14
34
00
3C
42
81
81
81
81
81
81
81
83
42
3C
ENDCHAR
STARTCHAR 00F5
ENCODING 245
SWIDTH 423 0
DWIDTH 11 0
BBX 8 15 1 0
BITMAP
0E
79
30
3C
42
81
81
81
81
81
81
81
83
42
3C
ENDCHAR
STARTCHAR 00F6
ENCODING 246
SWIDTH 423 0
DWIDTH 11 0
BBX 8 15 1 0
BITMAP
24
00
00
3C
42
81
81
81
81
81
81
81
83
42
3C
ENDCHAR
STARTCHAR 00F8
ENCODING 248
SWIDTH 384 0
DWIDTH 10 0
BBX 9 12 0 1
BITMAP
1D80
6300
4300
4300
8500
8D00
8900
9100
5100
6100
6300
5C00
ENDCHAR
STARTCHAR 00F9
ENCODING 249
SWIDTH 346 0
DWIDTH 9 0
BBX 8 15 0 0
BITMAP
08
08
00
81
81
81
81
81
81
81
81
41
41
63
1E
ENDCHAR
STARTCHAR 00FA
ENCODING 250
SWIDTH 346 0
DWIDTH 9 0
BBX 8 15 0 0
BITMAP
08
08
00
81
81
81
81
81
81
81
81
41
41
63
1E
ENDCHAR
STARTCHAR 00FB
ENCODING 251
SWIDTH 346 0
DWIDTH 9 0
BBX 8 16 0 0
BITMAP
08
14
16
00
81
81
81
81
81
81
81
81
41
41
63
1E
ENDCHAR
STARTCHAR 00FC
ENCODING 252
SWIDTH 346 0
DWIDTH 9 0
BBX 8 15 0 0
BITMAP
24
00
00
81
81
81
81
81
81
81
81
41
41
63
1E
ENDCHAR
STARTCHAR 00FD
ENCODING 253
SWIDTH 423 0
DWIDTH 11 0
BBX 8 20 1 -5
BITMAP
08
08
00
81
81
81
81
81
81
81
81
81
83
43
3D
01
81
83
42
3C
ENDCHAR
STARTCHAR 00FE
ENCODING 254
SWIDTH 423 0
DWIDTH 11 0
BBX 8 17 1 -3
BITMAP
80
80
BC
C2
C3
81
81
81
81
81
81
83
C2
BC
80
80
80
ENDCHAR
STARTCHAR 00FF
ENCODING 255
SWIDTH 423 0
DWIDTH 11 0
BBX 8 20 1 -5
BITMAP
24
00
00
81
81
81
81
81
81
81
81
81
83
43
3D
01
81
83
42
3C
ENDCHAR
STARTCHAR 0152
ENCODING 338
SWIDTH 692 0
DWIDTH 18 0
BBX 17 17 0 0
BITMAP
1F1F80
60B000
406000
406000
804000
804000
804000
804000
804E00
807000
806000
806000
804000
404000
404000
60C000
1F7F80
ENDCHAR
STARTCHAR 0153
ENCODING 339
SWIDTH 653 0
DWIDTH 17 0
BBX 16 12 0 0
BITMAP
1E3C
6162
4141
40C1
8081
809F
80E0
80C0
4081
40C1
6163
1E3C
ENDCHAR
STARTCHAR 0160
ENCODING 352
SWIDTH 423 0
DWIDTH 11 0
BBX 10 21 0 0
BITMAP
0A00
0A00
0400
0000
1F00
6080
4040
8000
8000
8000
4000
2000
1F00
0080
0040
0040
0040
4040
4040
60C0
1F00
ENDCHAR
STARTCHAR 0161
ENCODING 353
SWIDTH 307 0
DWIDTH 8 0
BBX 7 16 0 0
BITMAP
24
18
18
00
7C
42
80
80
40
7C
02
02
02
82
42
7C
ENDCHAR
STARTCHAR 0178
ENCODING 376
SWIDTH 461 0
DWIDTH 12 0
BBX 9 17 1 0
BITMAP
8080
8080
8080
8080
8080
8080
8080
8080
7100
1600
0800
0800
0800
0800
0800
0800
0800
ENDCHAR
STARTCHAR 02C6
ENCODING 710
SWIDTH 307 0
DWIDTH 8 0
BBX 3 3 4 15
BITMAP
C0
A0
A0
ENDCHAR
STARTCHAR 02DC
ENCODING 732
SWIDTH 307 0
DWIDTH 8 0
BBX 6 2 1 15
BITMAP
1C
E4
ENDCHAR
STARTCHAR 03BC
ENCODING 956
SWIDTH 346 0
DWIDTH 9 0
BBX 8 17 0 -5
BITMAP
81
81
81
81
81
81
81
81
C1
C1
A3
9D
80
80
80
80
80
ENDCHAR
STARTCHAR 2010
ENCODING 8208
SWIDTH 461 0
DWIDTH 12 0
BBX 11 5 0 6
BITMAP
4020
4020
3FC0
4020
8020
ENDCHAR
STARTCHAR 2013
ENCODING 8211
SWIDTH 538 0
DWIDTH 14 0
BBX 14 5 0 6
BITMAP
800C
8008
7FF8
8008
8008
ENDCHAR
STARTCHAR 2014
ENCODING 8212
SWIDTH 692 0
DWIDTH 18 0
BBX 18 5 0 6
BITMAP
800040
800040
7FFF80
800040
800040
ENDCHAR
STARTCHAR 2018
ENCODING 8216
SWIDTH 115 0
DWIDTH 3 0
BBX 1 2 1 14
BITMAP
80
80
ENDCHAR
STARTCHAR 2019
ENCODING 8217
SWIDTH 115 0
DWIDTH 3 0
BBX 1 4 1 13
BITMAP
80
80
80
80
ENDCHAR
STARTCHAR 201A
ENCODING 8218
SWIDTH 115 0
DWIDTH 3 0
BBX 1 4 1 -2
BITMAP
80
80
80
80
ENDCHAR
STARTCHAR 201C
ENCODING 8220
SWIDTH 269 0
DWIDTH 7 0
BBX 4 3 1 13
BITMAP
90
A0
90
ENDCHAR
STARTCHAR 201D
ENCODING 8221
SWIDTH 230 0
DWIDTH 6 0
BBX 4 4 1 13
BITMAP
A0
B0
90
A0
ENDCHAR
STARTCHAR 201E
ENCODING 8222
SWIDTH 230 0
DWIDTH 6 0
BBX 4 4 1 -2
BITMAP
B0
90
90
80
ENDCHAR
STARTCHAR 2020
ENCODING 8224
SWIDTH 269 0
DWIDTH 7 0
BBX 4 17 1 -1
BITMAP
20
20
F0
F0
20
20
20
20
20
20
20
20
20
20
20
20
20
ENDCHAR
STARTCHAR 2021
ENCODING 8225
SWIDTH 192 0
DWIDTH 5 0
BBX 4 17 0 -1
BITMAP
20
20
50
D0
20
20
20
20
20
20
20
20
20
70
D0
20
20
ENDCHAR
STARTCHAR 2026
ENCODING 8230
SWIDTH 461 0
DWIDTH 12 0
BBX 11 1 0 0
BITMAP
8420
ENDCHAR
STARTCHAR 2030
ENCODING 8240
SWIDTH 1076 0
DWIDTH 28 0
BBX 27 17 0 -1
BITMAP
1E040000
610C0000
40880000
40900000
80900000
40A00000
61A00000
3F400000
0CCE0780
00B18840
01209020
01209020
0240A020
02209020
04209020
0C310840
080E0780
ENDCHAR
STARTCHAR 2074
ENCODING 8308
SWIDTH 307 0
DWIDTH 8 0
BBX 6 10 1 7
BITMAP
20
20
60
40
40
90
D0
BC
10
10
ENDCHAR
STARTCHAR 2122
ENCODING 8482
SWIDTH 653 0
DWIDTH 17 0
BBX 16 7 0 6
BITMAP
FF00
09EE
0A31
0A21
0A21
0A21
0A21
ENDCHAR
STARTCHAR 2212
ENCODING 8722
SWIDTH 384 0
DWIDTH 10 0
BBX 9 1 1 7
BITMAP
FF80
ENDCHAR
ENDFONT
